<svg xmlns="http://www.w3.org/2000/svg" xmlns:xlink="http://www.w3.org/1999/xlink" version="1.1" viewBox="-394 -22 1520 380" width="1520px" height="380px"><defs><style>@font-face{
    font-family:"DIN Next";
    font-weight: 400;
    src:url("https://whimsical.com/fonts/139e8e25-0eea-4cb4-a5d4-79048803e73d.eot?#iefix");
    src:url("https://whimsical.com/fonts/139e8e25-0eea-4cb4-a5d4-79048803e73d.eot?#iefix") format("eot"),url("https://whimsical.com/fonts/094b15e3-94bd-435b-a595-d40edfde661a.woff2") format("woff2"),url("https://whimsical.com/fonts/7e5fbe11-4858-4bd1-9ec6-a1d9f9d227aa.woff") format("woff"),url("https://whimsical.com/fonts/0f11eff9-9f05-46f5-9703-027c510065d7.ttf") format("truetype"),url("https://whimsical.com/fonts/48b61978-3f30-4274-823c-5cdcd1876918.svg#48b61978-3f30-4274-823c-5cdcd1876918") format("svg");
}
@font-face{
    font-family:"DIN Next";
    font-weight: 400;
    font-style: italic;
    src:url("https://whimsical.com/fonts/df24d5e8-5087-42fd-99b1-b16042d666c8.eot?#iefix");
    src:url("https://whimsical.com/fonts/df24d5e8-5087-42fd-99b1-b16042d666c8.eot?#iefix") format("eot"),url("https://whimsical.com/fonts/46251881-ffe9-4bfb-99c7-d6ce3bebaf3e.woff2") format("woff2"),url("https://whimsical.com/fonts/790ebbf2-62c5-4a32-946f-99d405f9243e.woff") format("woff"),url("https://whimsical.com/fonts/d28199e6-0f4a-42df-97f4-606701c6f75a.ttf") format("truetype"),url("https://whimsical.com/fonts/37a462c0-d86e-492c-b9ab-35e6bd417f6c.svg#37a462c0-d86e-492c-b9ab-35e6bd417f6c") format("svg");
}
@font-face{
    font-weight: 500;
    font-family:"DIN Next";
    src:url("https://whimsical.com/fonts/c5b058fc-55ce-4e06-a175-5c7d9a7e90f4.eot?#iefix");
    src:url("https://whimsical.com/fonts/c5b058fc-55ce-4e06-a175-5c7d9a7e90f4.eot?#iefix") format("eot"),url("https://whimsical.com/fonts/7b29ae40-30ff-4f99-a2b9-cde88669fa2f.woff2") format("woff2"),url("https://whimsical.com/fonts/bf73077c-e354-4562-a085-f4703eb1d653.woff") format("woff"),url("https://whimsical.com/fonts/0ffa6947-5317-4d07-b525-14d08a028821.ttf") format("truetype"),url("https://whimsical.com/fonts/9e423e45-5450-4991-a157-dbe6cf61eb4e.svg#9e423e45-5450-4991-a157-dbe6cf61eb4e") format("svg");
}
@font-face{
    font-family:"DIN Next";
    font-weight: 500;
    font-style: italic;
    src:url("https://whimsical.com/fonts/9897c008-fd65-48a4-afc7-36de2fea97b9.eot?#iefix");
    src:url("https://whimsical.com/fonts/9897c008-fd65-48a4-afc7-36de2fea97b9.eot?#iefix") format("eot"),url("https://whimsical.com/fonts/c7717981-647d-4b76-8817-33062e42d11f.woff2") format("woff2"),url("https://whimsical.com/fonts/b852cd4c-1255-40b1-a2be-73a9105b0155.woff") format("woff"),url("https://whimsical.com/fonts/821b00ad-e741-4e2d-af1a-85594367c8a2.ttf") format("truetype"),url("https://whimsical.com/fonts/d3e3b689-a6b0-45f2-b279-f5e194f87409.svg#d3e3b689-a6b0-45f2-b279-f5e194f87409") format("svg");
}
@font-face{
    font-weight: 700;
    font-family:"DIN Next";
    src:url("https://whimsical.com/fonts/81cd3b08-fd39-4ae3-8d05-9d24709eba84.eot?#iefix");
    src:url("https://whimsical.com/fonts/81cd3b08-fd39-4ae3-8d05-9d24709eba84.eot?#iefix") format("eot"),url("https://whimsical.com/fonts/31704504-4671-47a6-a61e-397f07410d91.woff2") format("woff2"),url("https://whimsical.com/fonts/b8a280da-481f-44a0-8d9c-1bc64bd7227c.woff") format("woff"),url("https://whimsical.com/fonts/276d122a-0fab-447b-9fc0-5d7fb0eafce2.ttf") format("truetype"),url("https://whimsical.com/fonts/8fb8273a-8213-4928-808b-b5bfaf3fd7e9.svg#8fb8273a-8213-4928-808b-b5bfaf3fd7e9") format("svg");
}
@font-face{
    font-family:"DIN Next";
    font-weight: 700;
    font-style: italic;
    src:url("https://whimsical.com/fonts/00cc6df3-ed32-4004-8dd8-1c576600a408.eot?#iefix");
    src:url("https://whimsical.com/fonts/00cc6df3-ed32-4004-8dd8-1c576600a408.eot?#iefix") format("eot"),url("https://whimsical.com/fonts/4132c4c8-680c-4d6d-9251-a2da38503bbd.woff2") format("woff2"),url("https://whimsical.com/fonts/366401fe-6df4-47be-8f55-8a411cff0dd2.woff") format("woff"),url("https://whimsical.com/fonts/dbe4f7ba-fc16-44a6-a577-571620e9edaf.ttf") format("truetype"),url("https://whimsical.com/fonts/f874edca-ee87-4ccf-8b1d-921fbc3c1c36.svg#f874edca-ee87-4ccf-8b1d-921fbc3c1c36") format("svg");
}
* {-webkit-font-smoothing: auto; -moz-osx-font-smoothing: auto;}</style><filter id="fill-shadow" x="-100%" y="-100%" width="300%" height="300%"><feGaussianBlur in="SourceAlpha" stdDeviation="6"></feGaussianBlur><feOffset result="offsetblur" dx="0" dy="2"></feOffset><feComponentTransfer result="s0"><feFuncA type="linear" slope="0.16"></feFuncA></feComponentTransfer><feMerge><feMergeNode in="s0"></feMergeNode><feMergeNode in="SourceGraphic"></feMergeNode></feMerge></filter><filter id="fill-light-shadow" x="-100%" y="-100%" width="300%" height="300%"><feGaussianBlur in="SourceAlpha" stdDeviation="6"></feGaussianBlur><feOffset result="offsetblur" dx="0" dy="2"></feOffset><feComponentTransfer result="s0"><feFuncA type="linear" slope="0.04"></feFuncA></feComponentTransfer><feMerge><feMergeNode in="s0"></feMergeNode><feMergeNode in="SourceGraphic"></feMergeNode></feMerge></filter><filter id="image-shadow" x="-100%" y="-100%" width="300%" height="300%"><feGaussianBlur in="SourceAlpha" stdDeviation="8"></feGaussianBlur><feOffset result="offsetblur" dx="0" dy="3"></feOffset><feComponentTransfer result="s0"><feFuncA type="linear" slope="0.06"></feFuncA></feComponentTransfer><feMerge><feMergeNode in="s0"></feMergeNode><feMergeNode in="SourceGraphic"></feMergeNode></feMerge></filter><filter id="frame-shadow" x="-100%" y="-100%" width="300%" height="300%"><feGaussianBlur in="SourceAlpha" stdDeviation="8"></feGaussianBlur><feOffset result="offsetblur" dx="0" dy="3"></feOffset><feComponentTransfer result="s0"><feFuncA type="linear" slope="0.06"></feFuncA></feComponentTransfer><feMerge><feMergeNode in="s0"></feMergeNode><feMergeNode in="SourceGraphic"></feMergeNode></feMerge></filter><filter id="badge-shadow" x="-100%" y="-100%" width="300%" height="300%"><feGaussianBlur in="SourceAlpha" stdDeviation="6"></feGaussianBlur><feOffset result="offsetblur" dx="0" dy="2"></feOffset><feComponentTransfer result="s0"><feFuncA type="linear" slope="0.08"></feFuncA></feComponentTransfer><feMerge><feMergeNode in="s0"></feMergeNode><feMergeNode in="SourceGraphic"></feMergeNode></feMerge></filter></defs><g><g><path d="M-192,12c0,13.25482 -42.98074,24 -96,24c-53.01926,0 -96,-10.74518 -96,-24c0,-13.25482 42.98074,-24 96,-24c53.01926,0 96,10.74518 96,24c0,13.25482 0,70.74518 0,84c0,13.25482 -42.98074,24 -96,24c-53.01926,0 -96,-10.74518 -96,-24c0,-13.25482 0,-84 0,-84" fill="#FFFFFF"></path><path d="M-192,12c0,13.25482 -42.98074,24 -96,24c-53.01926,0 -96,-10.74518 -96,-24c0,-13.25482 42.98074,-24 96,-24c53.01926,0 96,10.74518 96,24c0,13.25482 0,70.74518 0,84c0,13.25482 -42.98074,24 -96,24c-53.01926,0 -96,-10.74518 -96,-24c0,-13.25482 0,-84 0,-84" fill="none" stroke="#C3CFD9" stroke-linecap="round" stroke-linejoin="round" stroke-width="2"></path><text y="48" font-style="normal" font-size="18" font-weight="normal" fill="#293845" width="168" xml:space="preserve" x="-372" font-family="DIN Next" height="48"><tspan x="-288" y="66" text-anchor="middle" style="white-space:pre;">Payment </tspan><tspan x="-288" y="90" text-anchor="middle" style="white-space:pre;">Microservice</tspan></text></g></g><g><g><path d="M-192,240c0,13.25482 -42.98074,24 -96,24c-53.01926,0 -96,-10.74518 -96,-24c0,-13.25482 42.98074,-24 96,-24c53.01926,0 96,10.74518 96,24c0,13.25482 0,70.74518 0,84c0,13.25482 -42.98074,24 -96,24c-53.01926,0 -96,-10.74518 -96,-24c0,-13.25482 0,-84 0,-84" fill="#FFFFFF"></path><path d="M-192,240c0,13.25482 -42.98074,24 -96,24c-53.01926,0 -96,-10.74518 -96,-24c0,-13.25482 42.98074,-24 96,-24c53.01926,0 96,10.74518 96,24c0,13.25482 0,70.74518 0,84c0,13.25482 -42.98074,24 -96,24c-53.01926,0 -96,-10.74518 -96,-24c0,-13.25482 0,-84 0,-84" fill="none" stroke="#C3CFD9" stroke-linecap="round" stroke-linejoin="round" stroke-width="2"></path><text y="276" font-style="normal" font-size="18" font-weight="normal" fill="#293845" width="168" xml:space="preserve" x="-372" font-family="DIN Next" height="48"><tspan x="-288" y="294" text-anchor="middle" style="white-space:pre;">Inventory </tspan><tspan x="-288" y="318" text-anchor="middle" style="white-space:pre;">Microservice</tspan></text></g></g><g><g><rect x="-96" y="234" width="192" height="96" rx="3" ry="3" fill="#FFFFFF"></rect><rect y="234" rx="3" stroke="#C3CFD9" fill="none" stroke-linejoin="round" width="192" stroke-linecap="round" stroke-width="2" x="-96" ry="3" height="96"></rect><text y="270" font-style="normal" font-size="18" font-weight="normal" fill="#293845" width="168" xml:space="preserve" x="-84" font-family="DIN Next" height="24"><tspan x="0" y="288" text-anchor="middle" style="white-space:pre;">Build Pipeline</tspan></text></g></g><g><g><path d="M468,126c0,13.25482 -42.98074,24 -96,24c-53.01926,0 -96,-10.74518 -96,-24c0,-13.25482 42.98074,-24 96,-24c53.01926,0 96,10.74518 96,24c0,13.25482 0,70.74518 0,84c0,13.25482 -42.98074,24 -96,24c-53.01926,0 -96,-10.74518 -96,-24c0,-13.25482 0,-84 0,-84" fill="#FFFFFF"></path><path d="M468,126c0,13.25482 -42.98074,24 -96,24c-53.01926,0 -96,-10.74518 -96,-24c0,-13.25482 42.98074,-24 96,-24c53.01926,0 96,10.74518 96,24c0,13.25482 0,70.74518 0,84c0,13.25482 -42.98074,24 -96,24c-53.01926,0 -96,-10.74518 -96,-24c0,-13.25482 0,-84 0,-84" fill="none" stroke="#C3CFD9" stroke-linecap="round" stroke-linejoin="round" stroke-width="2"></path><text y="162" font-style="normal" font-size="18" font-weight="normal" fill="#293845" width="168" xml:space="preserve" x="288" font-family="DIN Next" height="48"><tspan x="372" y="180" text-anchor="middle" style="white-space:pre;">Environment </tspan><tspan x="372" y="204" text-anchor="middle" style="white-space:pre;">Repository</tspan></text></g></g><g><g><rect x="-96" y="6" width="192" height="96" rx="3" ry="3" fill="#FFFFFF"></rect><rect y="6" rx="3" stroke="#C3CFD9" fill="none" stroke-linejoin="round" width="192" stroke-linecap="round" stroke-width="2" x="-96" ry="3" height="96"></rect><text y="42" font-style="normal" font-size="18" font-weight="normal" fill="#293845" width="168" xml:space="preserve" x="-84" font-family="DIN Next" height="24"><tspan x="0" y="60" text-anchor="middle" style="white-space:pre;">Build Pipeline</tspan></text></g></g><g><g><path d="M-184,54h25c8.28426,0 21.71574,0 30,0h21" fill="none" stroke="#788896" stroke-linecap="round" stroke-linejoin="round" stroke-width="4"></path><polygon points="-111.0921,48.45905 -104,54 -111.0921,59.54095" fill="#788896" stroke="#788896" stroke-width="2" stroke-linecap="round" stroke-linejoin="round"></polygon><text y="20" font-style="normal" font-size="18" font-weight="normal" fill="#293845" width="62" xml:space="preserve" x="-175" font-family="DIN Next" height="24"><tspan x="-144" y="38" text-anchor="middle" style="white-space:pre;">triggers</tspan></text></g></g><g><g><path d="M-184,282h25c8.28426,0 21.71574,0 30,0h21" fill="none" stroke="#788896" stroke-linecap="round" stroke-linejoin="round" stroke-width="4"></path><polygon points="-111.0921,276.45905 -104,282 -111.0921,287.54095" fill="#788896" stroke="#788896" stroke-width="2" stroke-linecap="round" stroke-linejoin="round"></polygon><text y="248" font-style="normal" font-size="18" font-weight="normal" fill="#293845" width="62" xml:space="preserve" x="-175" font-family="DIN Next" height="24"><tspan x="-144" y="266" text-anchor="middle" style="white-space:pre;">triggers</tspan></text></g></g><g><g><path d="M104,282h18.60108M299.60108,282h9.39892c8.28426,0 15,-6.71574 15,-15v-24.21078" fill="none" stroke="#788896" stroke-linecap="round" stroke-linejoin="round" stroke-width="4"></path><polygon points="318.45905,245.88132 324,238.78922 329.54095,245.88132" fill="#788896" stroke="#788896" stroke-width="2" stroke-linecap="round" stroke-linejoin="round"></polygon><text y="258" font-style="normal" font-size="18" font-weight="normal" fill="#293845" width="169" xml:space="preserve" x="126.60107520935213" font-family="DIN Next" height="48"><tspan x="211.10107520935213" y="276" text-anchor="middle" style="white-space:pre;">updates</tspan><tspan x="211.10107520935213" y="300" text-anchor="middle" style="white-space:pre;">inventory deployment</tspan></text></g></g><g><g><path d="M104,54h19.39812M295.39812,54h13.60188c8.28426,0 15,6.71574 15,15v24.21078" fill="none" stroke="#788896" stroke-linecap="round" stroke-linejoin="round" stroke-width="4"></path><polygon points="329.54095,90.11868 324,97.21078 318.45905,90.11868" fill="#788896" stroke="#788896" stroke-width="2" stroke-linecap="round" stroke-linejoin="round"></polygon><text y="30" font-style="normal" font-size="18" font-weight="normal" fill="#293845" width="164" xml:space="preserve" x="127.39812017739789" font-family="DIN Next" height="48"><tspan x="209.39812017739789" y="48" text-anchor="middle" style="white-space:pre;">updates</tspan><tspan x="209.39812017739789" y="72" text-anchor="middle" style="white-space:pre;">payment deployment</tspan></text></g></g><g><g><rect x="624" y="6" width="192" height="96" rx="48" ry="48" fill="#FFFFFF"></rect><rect y="6" stroke-dasharray="5, 8" rx="48" stroke="#C3CFD9" fill="none" stroke-linejoin="round" width="192" stroke-dashoffset="7" stroke-linecap="round" stroke-width="2" x="624" ry="48" height="96"></rect><text y="42" font-style="normal" font-size="18" font-weight="normal" fill="#293845" width="168" xml:space="preserve" x="636" font-family="DIN Next" height="24"><tspan x="720" y="60" text-anchor="middle" style="white-space:pre;">Deployment Pipeline</tspan></text></g></g><g><g><rect x="624" y="234" width="192" height="96" rx="48" ry="48" fill="#FFFFFF"></rect><rect y="234" stroke-dasharray="5, 8" rx="48" stroke="#C3CFD9" fill="none" stroke-linejoin="round" width="192" stroke-dashoffset="7" stroke-linecap="round" stroke-width="2" x="624" ry="48" height="96"></rect><text y="270" font-style="normal" font-size="18" font-weight="normal" fill="#293845" width="168" xml:space="preserve" x="636" font-family="DIN Next" height="24"><tspan x="720" y="288" text-anchor="middle" style="white-space:pre;">Deployment Pipeline</tspan></text></g></g><g><g><path d="M420,97.21078v-28.21078c0,-8.28426 6.71574,-15 15,-15h17.11199M579.11199,54h32.88801" fill="none" stroke="#788896" stroke-linecap="round" stroke-linejoin="round" stroke-width="4"></path><polygon points="608.9079,48.45905 616,54 608.9079,59.54095" fill="#788896" stroke="#788896" stroke-width="2" stroke-linecap="round" stroke-linejoin="round"></polygon><text y="18" font-style="normal" font-size="18" font-weight="normal" fill="#293845" width="119" xml:space="preserve" x="456.11198689122034" font-family="DIN Next" height="72"><tspan x="515.6119868912203" y="36" text-anchor="middle" style="white-space:pre;">trigger when</tspan><tspan x="515.6119868912203" y="60" text-anchor="middle" style="white-space:pre;">master branch </tspan><tspan x="515.6119868912203" y="84" text-anchor="middle" style="white-space:pre;">updated</tspan></text></g></g><g><g><path d="M420,238.78922v28.21078c0,8.28426 6.71574,15 15,15c1.98612,0 9.786,0 20.61199,0M583.61199,282h28.38801" fill="none" stroke="#788896" stroke-linecap="round" stroke-linejoin="round" stroke-width="4"></path><polygon points="608.9079,276.45905 616,282 608.9079,287.54095" fill="#788896" stroke="#788896" stroke-width="2" stroke-linecap="round" stroke-linejoin="round"></polygon><text y="246" font-style="normal" font-size="18" font-weight="normal" fill="#293845" width="120" xml:space="preserve" x="459.6119868912202" font-family="DIN Next" height="72"><tspan x="519.6119868912202" y="264" text-anchor="middle" style="white-space:pre;">trigger when</tspan><tspan x="519.6119868912202" y="288" text-anchor="middle" style="white-space:pre;">staging branch </tspan><tspan x="519.6119868912202" y="312" text-anchor="middle" style="white-space:pre;">updated</tspan></text></g></g><g><g><rect x="924" y="6" width="192" height="96" rx="3" ry="3" fill="#FFFFFF"></rect><rect y="6" rx="3" stroke="#C3CFD9" fill="none" stroke-linejoin="round" width="192" stroke-linecap="round" stroke-width="2" x="924" ry="3" height="96"></rect><text y="30" font-style="normal" font-size="18" font-weight="normal" fill="#293845" width="168" xml:space="preserve" x="936" font-family="DIN Next" height="48"><tspan x="1020" y="48" text-anchor="middle" style="white-space:pre;">Production </tspan><tspan x="1020" y="72" text-anchor="middle" style="white-space:pre;">Environment</tspan></text></g></g><g><g><rect x="924" y="234" width="192" height="96" rx="3" ry="3" fill="#FFFFFF"></rect><rect y="234" rx="3" stroke="#C3CFD9" fill="none" stroke-linejoin="round" width="192" stroke-linecap="round" stroke-width="2" x="924" ry="3" height="96"></rect><text y="258" font-style="normal" font-size="18" font-weight="normal" fill="#293845" width="168" xml:space="preserve" x="936" font-family="DIN Next" height="48"><tspan x="1020" y="276" text-anchor="middle" style="white-space:pre;">Staging</tspan><tspan x="1020" y="300" text-anchor="middle" style="white-space:pre;">Environment</tspan></text></g></g><g><g><path d="M824,54c2.02518,0 6.21057,0 11.5,0M904.5,54h7.5" fill="none" stroke="#788896" stroke-linecap="round" stroke-linejoin="round" stroke-width="4"></path><polygon points="908.9079,48.45905 916,54 908.9079,59.54095" fill="#788896" stroke="#788896" stroke-width="2" stroke-linecap="round" stroke-linejoin="round"></polygon><text y="42" font-style="normal" font-size="18" font-weight="normal" fill="#293845" width="61" xml:space="preserve" x="839.4999999999999" font-family="DIN Next" height="24"><tspan x="869.9999999999999" y="60" text-anchor="middle" style="white-space:pre;">deploys</tspan></text></g></g><g><g><path d="M824,282c2.02518,0 6.21057,0 11.5,0M904.5,282h7.5" fill="none" stroke="#788896" stroke-linecap="round" stroke-linejoin="round" stroke-width="4"></path><polygon points="908.9079,276.45905 916,282 908.9079,287.54095" fill="#788896" stroke="#788896" stroke-width="2" stroke-linecap="round" stroke-linejoin="round"></polygon><text y="270" font-style="normal" font-size="18" font-weight="normal" fill="#293845" width="61" xml:space="preserve" x="839.4999999999999" font-family="DIN Next" height="24"><tspan x="869.9999999999999" y="288" text-anchor="middle" style="white-space:pre;">deploys</tspan></text></g></g></svg>