<svg xmlns="http://www.w3.org/2000/svg" xmlns:xlink="http://www.w3.org/1999/xlink" version="1.1" viewBox="-502 50 1448 404" width="1448px" height="404px"><defs><style>@font-face{
    font-family:"DIN Next";
    font-weight: 400;
    src:url("https://whimsical.com/fonts/139e8e25-0eea-4cb4-a5d4-79048803e73d.eot?#iefix");
    src:url("https://whimsical.com/fonts/139e8e25-0eea-4cb4-a5d4-79048803e73d.eot?#iefix") format("eot"),url("https://whimsical.com/fonts/094b15e3-94bd-435b-a595-d40edfde661a.woff2") format("woff2"),url("https://whimsical.com/fonts/7e5fbe11-4858-4bd1-9ec6-a1d9f9d227aa.woff") format("woff"),url("https://whimsical.com/fonts/0f11eff9-9f05-46f5-9703-027c510065d7.ttf") format("truetype"),url("https://whimsical.com/fonts/48b61978-3f30-4274-823c-5cdcd1876918.svg#48b61978-3f30-4274-823c-5cdcd1876918") format("svg");
}
@font-face{
    font-family:"DIN Next";
    font-weight: 400;
    font-style: italic;
    src:url("https://whimsical.com/fonts/df24d5e8-5087-42fd-99b1-b16042d666c8.eot?#iefix");
    src:url("https://whimsical.com/fonts/df24d5e8-5087-42fd-99b1-b16042d666c8.eot?#iefix") format("eot"),url("https://whimsical.com/fonts/46251881-ffe9-4bfb-99c7-d6ce3bebaf3e.woff2") format("woff2"),url("https://whimsical.com/fonts/790ebbf2-62c5-4a32-946f-99d405f9243e.woff") format("woff"),url("https://whimsical.com/fonts/d28199e6-0f4a-42df-97f4-606701c6f75a.ttf") format("truetype"),url("https://whimsical.com/fonts/37a462c0-d86e-492c-b9ab-35e6bd417f6c.svg#37a462c0-d86e-492c-b9ab-35e6bd417f6c") format("svg");
}
@font-face{
    font-weight: 500;
    font-family:"DIN Next";
    src:url("https://whimsical.com/fonts/c5b058fc-55ce-4e06-a175-5c7d9a7e90f4.eot?#iefix");
    src:url("https://whimsical.com/fonts/c5b058fc-55ce-4e06-a175-5c7d9a7e90f4.eot?#iefix") format("eot"),url("https://whimsical.com/fonts/7b29ae40-30ff-4f99-a2b9-cde88669fa2f.woff2") format("woff2"),url("https://whimsical.com/fonts/bf73077c-e354-4562-a085-f4703eb1d653.woff") format("woff"),url("https://whimsical.com/fonts/0ffa6947-5317-4d07-b525-14d08a028821.ttf") format("truetype"),url("https://whimsical.com/fonts/9e423e45-5450-4991-a157-dbe6cf61eb4e.svg#9e423e45-5450-4991-a157-dbe6cf61eb4e") format("svg");
}
@font-face{
    font-family:"DIN Next";
    font-weight: 500;
    font-style: italic;
    src:url("https://whimsical.com/fonts/9897c008-fd65-48a4-afc7-36de2fea97b9.eot?#iefix");
    src:url("https://whimsical.com/fonts/9897c008-fd65-48a4-afc7-36de2fea97b9.eot?#iefix") format("eot"),url("https://whimsical.com/fonts/c7717981-647d-4b76-8817-33062e42d11f.woff2") format("woff2"),url("https://whimsical.com/fonts/b852cd4c-1255-40b1-a2be-73a9105b0155.woff") format("woff"),url("https://whimsical.com/fonts/821b00ad-e741-4e2d-af1a-85594367c8a2.ttf") format("truetype"),url("https://whimsical.com/fonts/d3e3b689-a6b0-45f2-b279-f5e194f87409.svg#d3e3b689-a6b0-45f2-b279-f5e194f87409") format("svg");
}
@font-face{
    font-weight: 700;
    font-family:"DIN Next";
    src:url("https://whimsical.com/fonts/81cd3b08-fd39-4ae3-8d05-9d24709eba84.eot?#iefix");
    src:url("https://whimsical.com/fonts/81cd3b08-fd39-4ae3-8d05-9d24709eba84.eot?#iefix") format("eot"),url("https://whimsical.com/fonts/31704504-4671-47a6-a61e-397f07410d91.woff2") format("woff2"),url("https://whimsical.com/fonts/b8a280da-481f-44a0-8d9c-1bc64bd7227c.woff") format("woff"),url("https://whimsical.com/fonts/276d122a-0fab-447b-9fc0-5d7fb0eafce2.ttf") format("truetype"),url("https://whimsical.com/fonts/8fb8273a-8213-4928-808b-b5bfaf3fd7e9.svg#8fb8273a-8213-4928-808b-b5bfaf3fd7e9") format("svg");
}
@font-face{
    font-family:"DIN Next";
    font-weight: 700;
    font-style: italic;
    src:url("https://whimsical.com/fonts/00cc6df3-ed32-4004-8dd8-1c576600a408.eot?#iefix");
    src:url("https://whimsical.com/fonts/00cc6df3-ed32-4004-8dd8-1c576600a408.eot?#iefix") format("eot"),url("https://whimsical.com/fonts/4132c4c8-680c-4d6d-9251-a2da38503bbd.woff2") format("woff2"),url("https://whimsical.com/fonts/366401fe-6df4-47be-8f55-8a411cff0dd2.woff") format("woff"),url("https://whimsical.com/fonts/dbe4f7ba-fc16-44a6-a577-571620e9edaf.ttf") format("truetype"),url("https://whimsical.com/fonts/f874edca-ee87-4ccf-8b1d-921fbc3c1c36.svg#f874edca-ee87-4ccf-8b1d-921fbc3c1c36") format("svg");
}
* {-webkit-font-smoothing: auto; -moz-osx-font-smoothing: auto;}</style><filter id="fill-shadow" x="-100%" y="-100%" width="300%" height="300%"><feGaussianBlur in="SourceAlpha" stdDeviation="6"></feGaussianBlur><feOffset result="offsetblur" dx="0" dy="2"></feOffset><feComponentTransfer result="s0"><feFuncA type="linear" slope="0.16"></feFuncA></feComponentTransfer><feMerge><feMergeNode in="s0"></feMergeNode><feMergeNode in="SourceGraphic"></feMergeNode></feMerge></filter><filter id="fill-light-shadow" x="-100%" y="-100%" width="300%" height="300%"><feGaussianBlur in="SourceAlpha" stdDeviation="6"></feGaussianBlur><feOffset result="offsetblur" dx="0" dy="2"></feOffset><feComponentTransfer result="s0"><feFuncA type="linear" slope="0.04"></feFuncA></feComponentTransfer><feMerge><feMergeNode in="s0"></feMergeNode><feMergeNode in="SourceGraphic"></feMergeNode></feMerge></filter><filter id="image-shadow" x="-100%" y="-100%" width="300%" height="300%"><feGaussianBlur in="SourceAlpha" stdDeviation="8"></feGaussianBlur><feOffset result="offsetblur" dx="0" dy="3"></feOffset><feComponentTransfer result="s0"><feFuncA type="linear" slope="0.06"></feFuncA></feComponentTransfer><feMerge><feMergeNode in="s0"></feMergeNode><feMergeNode in="SourceGraphic"></feMergeNode></feMerge></filter><filter id="frame-shadow" x="-100%" y="-100%" width="300%" height="300%"><feGaussianBlur in="SourceAlpha" stdDeviation="8"></feGaussianBlur><feOffset result="offsetblur" dx="0" dy="3"></feOffset><feComponentTransfer result="s0"><feFuncA type="linear" slope="0.06"></feFuncA></feComponentTransfer><feMerge><feMergeNode in="s0"></feMergeNode><feMergeNode in="SourceGraphic"></feMergeNode></feMerge></filter><filter id="badge-shadow" x="-100%" y="-100%" width="300%" height="300%"><feGaussianBlur in="SourceAlpha" stdDeviation="6"></feGaussianBlur><feOffset result="offsetblur" dx="0" dy="2"></feOffset><feComponentTransfer result="s0"><feFuncA type="linear" slope="0.08"></feFuncA></feComponentTransfer><feMerge><feMergeNode in="s0"></feMergeNode><feMergeNode in="SourceGraphic"></feMergeNode></feMerge></filter></defs><g><g><rect x="360" y="180" width="576" height="132" rx="3" ry="3" fill="#E4E7EA"></rect><rect y="180" stroke-dasharray="5, 8" rx="3" stroke="#788896" fill="none" stroke-linejoin="round" width="576" stroke-dashoffset="7" stroke-linecap="round" stroke-width="2" x="360" ry="3" height="132"></rect></g><g><g><g><rect x="720" y="198" width="192" height="96" rx="3" ry="3" fill="#FFFFFF"></rect><rect y="198" rx="3" stroke="#C3CFD9" fill="none" stroke-linejoin="round" width="192" stroke-linecap="round" stroke-width="2" x="720" ry="3" height="96"></rect><text y="234" font-style="normal" font-size="18" font-weight="normal" fill="#293845" width="168" xml:space="preserve" x="732" font-family="DIN Next" height="24"><tspan x="816" y="252" text-anchor="middle" style="white-space:pre;">Deployment</tspan></text></g></g><g><g><rect x="384" y="198" width="192" height="96" rx="48" ry="48" fill="#FFFFFF"></rect><rect y="198" rx="48" stroke="#C3CFD9" fill="none" stroke-linejoin="round" width="192" stroke-linecap="round" stroke-width="2" x="384" ry="48" height="96"></rect><text y="234" font-style="normal" font-size="18" font-weight="normal" fill="#293845" width="168" xml:space="preserve" x="396" font-family="DIN Next" height="24"><tspan x="480" y="252" text-anchor="middle" style="white-space:pre;">Operator</tspan></text></g></g><g><g><path d="M584,264h29.5M682.5,264h25.5" fill="none" stroke="#788896" stroke-linecap="round" stroke-linejoin="round" stroke-width="4"></path><polygon points="704.9079,258.45905 712,264 704.9079,269.54095" fill="#788896" stroke="#788896" stroke-width="2" stroke-linecap="round" stroke-linejoin="round"></polygon><text y="252" font-style="normal" font-size="18" font-weight="normal" fill="#293845" width="61" xml:space="preserve" x="617.5" font-family="DIN Next" height="24"><tspan x="648" y="270" text-anchor="middle" style="white-space:pre;">deploys</tspan></text></g></g></g></g><g><g><path d="M584,228h24.5M687.5,228h20.5" fill="none" stroke="#2C88D9" stroke-linecap="round" stroke-linejoin="round" stroke-width="4"></path><polygon points="704.9079,222.45905 712,228 704.9079,233.54095" fill="#2C88D9" stroke="#2C88D9" stroke-width="2" stroke-linecap="round" stroke-linejoin="round"></polygon><text y="216" font-style="normal" font-size="18" font-weight="normal" fill="#293845" width="71" xml:space="preserve" x="612.5" font-family="DIN Next" height="24"><tspan x="648" y="234" text-anchor="middle" style="white-space:pre;">observes</tspan></text></g></g><g><g><path d="M-300,204c0,13.25482 -42.98074,24 -96,24c-53.01926,0 -96,-10.74518 -96,-24c0,-13.25482 42.98074,-24 96,-24c53.01926,0 96,10.74518 96,24c0,13.25482 0,70.74518 0,84c0,13.25482 -42.98074,24 -96,24c-53.01926,0 -96,-10.74518 -96,-24c0,-13.25482 0,-84 0,-84" fill="#FFFFFF"></path><path d="M-300,204c0,13.25482 -42.98074,24 -96,24c-53.01926,0 -96,-10.74518 -96,-24c0,-13.25482 42.98074,-24 96,-24c53.01926,0 96,10.74518 96,24c0,13.25482 0,70.74518 0,84c0,13.25482 -42.98074,24 -96,24c-53.01926,0 -96,-10.74518 -96,-24c0,-13.25482 0,-84 0,-84" fill="none" stroke="#C3CFD9" stroke-linecap="round" stroke-linejoin="round" stroke-width="2"></path><text y="240" font-style="normal" font-size="18" font-weight="normal" fill="#293845" width="168" xml:space="preserve" x="-480" font-family="DIN Next" height="48"><tspan x="-396" y="258" text-anchor="middle" style="white-space:pre;">Application </tspan><tspan x="-396" y="282" text-anchor="middle" style="white-space:pre;">Repository</tspan></text></g></g><g><g><rect x="-216" y="198" width="192" height="96" rx="3" ry="3" fill="#FFFFFF"></rect><rect y="198" rx="3" stroke="#C3CFD9" fill="none" stroke-linejoin="round" width="192" stroke-linecap="round" stroke-width="2" x="-216" ry="3" height="96"></rect><text y="234" font-style="normal" font-size="18" font-weight="normal" fill="#293845" width="168" xml:space="preserve" x="-204" font-family="DIN Next" height="24"><tspan x="-120" y="252" text-anchor="middle" style="white-space:pre;">Build Pipeline</tspan></text></g></g><g><g><path d="M-292,246h19c8.28426,0 21.71574,0 30,0h15" fill="none" stroke="#788896" stroke-linecap="round" stroke-linejoin="round" stroke-width="4"></path><polygon points="-231.0921,240.45905 -224,246 -231.0921,251.54095" fill="#788896" stroke="#788896" stroke-width="2" stroke-linecap="round" stroke-linejoin="round"></polygon><text y="212" font-style="normal" font-size="18" font-weight="normal" fill="#293845" width="62" xml:space="preserve" x="-289" font-family="DIN Next" height="24"><tspan x="-258" y="230" text-anchor="middle" style="white-space:pre;">triggers</tspan></text></g></g><g><g><path d="M324,84c0,13.25482 -42.98074,24 -96,24c-53.01926,0 -96,-10.74518 -96,-24c0,-13.25482 42.98074,-24 96,-24c53.01926,0 96,10.74518 96,24c0,13.25482 0,58.74518 0,72c0,13.25482 -42.98074,24 -96,24c-53.01926,0 -96,-10.74518 -96,-24c0,-13.25482 0,-72 0,-72" fill="#FFFFFF"></path><path d="M324,84c0,13.25482 -42.98074,24 -96,24c-53.01926,0 -96,-10.74518 -96,-24c0,-13.25482 42.98074,-24 96,-24c53.01926,0 96,10.74518 96,24c0,13.25482 0,58.74518 0,72c0,13.25482 -42.98074,24 -96,24c-53.01926,0 -96,-10.74518 -96,-24c0,-13.25482 0,-72 0,-72" fill="none" stroke="#C3CFD9" stroke-linecap="round" stroke-linejoin="round" stroke-width="2"></path><text y="126" font-style="normal" font-size="18" font-weight="normal" fill="#293845" width="168" xml:space="preserve" x="144" font-family="DIN Next" height="24"><tspan x="228" y="144" text-anchor="middle" style="white-space:pre;">Image Registry</tspan></text></g></g><g><g><path d="M324,336c0,13.25482 -42.98074,24 -96,24c-53.01926,0 -96,-10.74518 -96,-24c0,-13.25482 42.98074,-24 96,-24c53.01926,0 96,10.74518 96,24c0,13.25482 0,70.74518 0,84c0,13.25482 -42.98074,24 -96,24c-53.01926,0 -96,-10.74518 -96,-24c0,-13.25482 0,-84 0,-84" fill="#FFFFFF"></path><path d="M324,336c0,13.25482 -42.98074,24 -96,24c-53.01926,0 -96,-10.74518 -96,-24c0,-13.25482 42.98074,-24 96,-24c53.01926,0 96,10.74518 96,24c0,13.25482 0,70.74518 0,84c0,13.25482 -42.98074,24 -96,24c-53.01926,0 -96,-10.74518 -96,-24c0,-13.25482 0,-84 0,-84" fill="none" stroke="#C3CFD9" stroke-linecap="round" stroke-linejoin="round" stroke-width="2"></path><text y="372" font-style="normal" font-size="18" font-weight="normal" fill="#293845" width="168" xml:space="preserve" x="144" font-family="DIN Next" height="48"><tspan x="228" y="390" text-anchor="middle" style="white-space:pre;">Environment </tspan><tspan x="228" y="414" text-anchor="middle" style="white-space:pre;">Repository</tspan></text></g></g><g><g><path d="M-16,246l55,0c8.28426,0 15,-6.71574 15,-15v-22M54,157v-22c0,-8.28426 6.71574,-15 15,-15h51" fill="none" stroke="#788896" stroke-linecap="round" stroke-linejoin="round" stroke-width="4"></path><polygon points="116.9079,114.45905 124,120 116.9079,125.54095" fill="#788896" stroke="#788896" stroke-width="2" stroke-linecap="round" stroke-linejoin="round"></polygon><text y="158.9999999999999" font-style="normal" font-size="18" font-weight="normal" fill="#293845" width="135" xml:space="preserve" x="-13.5" font-family="DIN Next" height="48"><tspan x="54" y="176.9999999999999" text-anchor="middle" style="white-space:pre;">pushes </tspan><tspan x="54" y="200.9999999999999" text-anchor="middle" style="white-space:pre;">container images</tspan></text></g></g><g><g><path d="M-16,246h55c8.28426,0 15,6.71574 15,15v37M54,326v37c0,8.28426 6.71574,15 15,15h51" fill="none" stroke="#788896" stroke-linecap="round" stroke-linejoin="round" stroke-width="4"></path><polygon points="116.9079,372.45905 124,378 116.9079,383.54095" fill="#788896" stroke="#788896" stroke-width="2" stroke-linecap="round" stroke-linejoin="round"></polygon><text y="300" font-style="normal" font-size="18" font-weight="normal" fill="#293845" width="63" xml:space="preserve" x="22.5" font-family="DIN Next" height="24"><tspan x="54" y="318" text-anchor="middle" style="white-space:pre;">updates</tspan></text></g></g><g><g><path d="M376,246l-19.25966,0M277.74034,246h-34.74034c-8.28426,0 -15,-6.71574 -15,-15v-39" fill="none" stroke="#2C88D9" stroke-linecap="round" stroke-linejoin="round" stroke-width="4"></path><polygon points="222.45905,195.0921 228,188 233.54095,195.0921" fill="#2C88D9" stroke="#2C88D9" stroke-width="2" stroke-linecap="round" stroke-linejoin="round"></polygon><text y="233.99999999999997" font-style="normal" font-size="18" font-weight="normal" fill="#293845" width="71" xml:space="preserve" x="281.740344437487" font-family="DIN Next" height="24"><tspan x="317.240344437487" y="251.99999999999997" text-anchor="middle" style="white-space:pre;">observes</tspan></text></g></g><g><g><path d="M276,246h-33c-8.28426,0 -15,6.71574 -15,15v5.5c0,6.90355 0,18.09645 0,25v8.5" fill="none" stroke="#2C88D9" stroke-linecap="round" stroke-linejoin="round" stroke-width="4"></path><polygon points="233.54095,296.9079 228,304 222.45905,296.9079" fill="#2C88D9" stroke="#2C88D9" stroke-width="2" stroke-linecap="round" stroke-linejoin="round"></polygon><text y="242.4457442451455" font-style="normal" font-size="18" font-weight="normal" fill="#293845" width="0" xml:space="preserve" x="229.50392670778368" font-family="DIN Next" height="24"><tspan x="229.50392670778368" y="260.44574424514553" text-anchor="middle" style="white-space:pre;"></tspan></text></g></g><g><g><path d="M480,302c0,0.27614 0,1.22386 0,1.5v59.5c0,8.28426 -6.71574,15 -15,15h-25.58238M382.41762,378h-46.41762" fill="none" stroke="#788896" stroke-linecap="round" stroke-linejoin="round" stroke-width="4"></path><polygon points="339.0921,383.54095 332,378 339.0921,372.45905" fill="#788896" stroke="#788896" stroke-width="2" stroke-linecap="round" stroke-linejoin="round"></polygon><text y="366" font-style="normal" font-size="18" font-weight="normal" fill="#293845" width="49" xml:space="preserve" x="386.417622793567" font-family="DIN Next" height="24"><tspan x="410.917622793567" y="384" text-anchor="middle" style="white-space:pre;">writes</tspan></text></g></g><g><g><text y="312" font-style="normal" font-size="18" font-weight="normal" fill="#293845" width="100" xml:space="preserve" x="598" font-family="DIN Next" height="24"><tspan x="598" y="330" text-anchor="start" style="white-space:pre;">Environment</tspan></text></g></g></svg>