<svg xmlns="http://www.w3.org/2000/svg" xmlns:xlink="http://www.w3.org/1999/xlink" version="1.1" viewBox="-766 -190 1412 404" width="1412px" height="404px"><defs><style>@font-face{
    font-family:"DIN Next";
    font-weight: 400;
    src:url("https://whimsical.com/fonts/139e8e25-0eea-4cb4-a5d4-79048803e73d.eot?#iefix");
    src:url("https://whimsical.com/fonts/139e8e25-0eea-4cb4-a5d4-79048803e73d.eot?#iefix") format("eot"),url("https://whimsical.com/fonts/094b15e3-94bd-435b-a595-d40edfde661a.woff2") format("woff2"),url("https://whimsical.com/fonts/7e5fbe11-4858-4bd1-9ec6-a1d9f9d227aa.woff") format("woff"),url("https://whimsical.com/fonts/0f11eff9-9f05-46f5-9703-027c510065d7.ttf") format("truetype"),url("https://whimsical.com/fonts/48b61978-3f30-4274-823c-5cdcd1876918.svg#48b61978-3f30-4274-823c-5cdcd1876918") format("svg");
}
@font-face{
    font-family:"DIN Next";
    font-weight: 400;
    font-style: italic;
    src:url("https://whimsical.com/fonts/df24d5e8-5087-42fd-99b1-b16042d666c8.eot?#iefix");
    src:url("https://whimsical.com/fonts/df24d5e8-5087-42fd-99b1-b16042d666c8.eot?#iefix") format("eot"),url("https://whimsical.com/fonts/46251881-ffe9-4bfb-99c7-d6ce3bebaf3e.woff2") format("woff2"),url("https://whimsical.com/fonts/790ebbf2-62c5-4a32-946f-99d405f9243e.woff") format("woff"),url("https://whimsical.com/fonts/d28199e6-0f4a-42df-97f4-606701c6f75a.ttf") format("truetype"),url("https://whimsical.com/fonts/37a462c0-d86e-492c-b9ab-35e6bd417f6c.svg#37a462c0-d86e-492c-b9ab-35e6bd417f6c") format("svg");
}
@font-face{
    font-weight: 500;
    font-family:"DIN Next";
    src:url("https://whimsical.com/fonts/c5b058fc-55ce-4e06-a175-5c7d9a7e90f4.eot?#iefix");
    src:url("https://whimsical.com/fonts/c5b058fc-55ce-4e06-a175-5c7d9a7e90f4.eot?#iefix") format("eot"),url("https://whimsical.com/fonts/7b29ae40-30ff-4f99-a2b9-cde88669fa2f.woff2") format("woff2"),url("https://whimsical.com/fonts/bf73077c-e354-4562-a085-f4703eb1d653.woff") format("woff"),url("https://whimsical.com/fonts/0ffa6947-5317-4d07-b525-14d08a028821.ttf") format("truetype"),url("https://whimsical.com/fonts/9e423e45-5450-4991-a157-dbe6cf61eb4e.svg#9e423e45-5450-4991-a157-dbe6cf61eb4e") format("svg");
}
@font-face{
    font-family:"DIN Next";
    font-weight: 500;
    font-style: italic;
    src:url("https://whimsical.com/fonts/9897c008-fd65-48a4-afc7-36de2fea97b9.eot?#iefix");
    src:url("https://whimsical.com/fonts/9897c008-fd65-48a4-afc7-36de2fea97b9.eot?#iefix") format("eot"),url("https://whimsical.com/fonts/c7717981-647d-4b76-8817-33062e42d11f.woff2") format("woff2"),url("https://whimsical.com/fonts/b852cd4c-1255-40b1-a2be-73a9105b0155.woff") format("woff"),url("https://whimsical.com/fonts/821b00ad-e741-4e2d-af1a-85594367c8a2.ttf") format("truetype"),url("https://whimsical.com/fonts/d3e3b689-a6b0-45f2-b279-f5e194f87409.svg#d3e3b689-a6b0-45f2-b279-f5e194f87409") format("svg");
}
@font-face{
    font-weight: 700;
    font-family:"DIN Next";
    src:url("https://whimsical.com/fonts/81cd3b08-fd39-4ae3-8d05-9d24709eba84.eot?#iefix");
    src:url("https://whimsical.com/fonts/81cd3b08-fd39-4ae3-8d05-9d24709eba84.eot?#iefix") format("eot"),url("https://whimsical.com/fonts/31704504-4671-47a6-a61e-397f07410d91.woff2") format("woff2"),url("https://whimsical.com/fonts/b8a280da-481f-44a0-8d9c-1bc64bd7227c.woff") format("woff"),url("https://whimsical.com/fonts/276d122a-0fab-447b-9fc0-5d7fb0eafce2.ttf") format("truetype"),url("https://whimsical.com/fonts/8fb8273a-8213-4928-808b-b5bfaf3fd7e9.svg#8fb8273a-8213-4928-808b-b5bfaf3fd7e9") format("svg");
}
@font-face{
    font-family:"DIN Next";
    font-weight: 700;
    font-style: italic;
    src:url("https://whimsical.com/fonts/00cc6df3-ed32-4004-8dd8-1c576600a408.eot?#iefix");
    src:url("https://whimsical.com/fonts/00cc6df3-ed32-4004-8dd8-1c576600a408.eot?#iefix") format("eot"),url("https://whimsical.com/fonts/4132c4c8-680c-4d6d-9251-a2da38503bbd.woff2") format("woff2"),url("https://whimsical.com/fonts/366401fe-6df4-47be-8f55-8a411cff0dd2.woff") format("woff"),url("https://whimsical.com/fonts/dbe4f7ba-fc16-44a6-a577-571620e9edaf.ttf") format("truetype"),url("https://whimsical.com/fonts/f874edca-ee87-4ccf-8b1d-921fbc3c1c36.svg#f874edca-ee87-4ccf-8b1d-921fbc3c1c36") format("svg");
}
* {-webkit-font-smoothing: auto; -moz-osx-font-smoothing: auto;}</style><filter id="fill-shadow" x="-100%" y="-100%" width="300%" height="300%"><feGaussianBlur in="SourceAlpha" stdDeviation="6"></feGaussianBlur><feOffset result="offsetblur" dx="0" dy="2"></feOffset><feComponentTransfer result="s0"><feFuncA type="linear" slope="0.16"></feFuncA></feComponentTransfer><feMerge><feMergeNode in="s0"></feMergeNode><feMergeNode in="SourceGraphic"></feMergeNode></feMerge></filter><filter id="fill-light-shadow" x="-100%" y="-100%" width="300%" height="300%"><feGaussianBlur in="SourceAlpha" stdDeviation="6"></feGaussianBlur><feOffset result="offsetblur" dx="0" dy="2"></feOffset><feComponentTransfer result="s0"><feFuncA type="linear" slope="0.04"></feFuncA></feComponentTransfer><feMerge><feMergeNode in="s0"></feMergeNode><feMergeNode in="SourceGraphic"></feMergeNode></feMerge></filter><filter id="image-shadow" x="-100%" y="-100%" width="300%" height="300%"><feGaussianBlur in="SourceAlpha" stdDeviation="8"></feGaussianBlur><feOffset result="offsetblur" dx="0" dy="3"></feOffset><feComponentTransfer result="s0"><feFuncA type="linear" slope="0.06"></feFuncA></feComponentTransfer><feMerge><feMergeNode in="s0"></feMergeNode><feMergeNode in="SourceGraphic"></feMergeNode></feMerge></filter><filter id="frame-shadow" x="-100%" y="-100%" width="300%" height="300%"><feGaussianBlur in="SourceAlpha" stdDeviation="8"></feGaussianBlur><feOffset result="offsetblur" dx="0" dy="3"></feOffset><feComponentTransfer result="s0"><feFuncA type="linear" slope="0.06"></feFuncA></feComponentTransfer><feMerge><feMergeNode in="s0"></feMergeNode><feMergeNode in="SourceGraphic"></feMergeNode></feMerge></filter><filter id="badge-shadow" x="-100%" y="-100%" width="300%" height="300%"><feGaussianBlur in="SourceAlpha" stdDeviation="6"></feGaussianBlur><feOffset result="offsetblur" dx="0" dy="2"></feOffset><feComponentTransfer result="s0"><feFuncA type="linear" slope="0.08"></feFuncA></feComponentTransfer><feMerge><feMergeNode in="s0"></feMergeNode><feMergeNode in="SourceGraphic"></feMergeNode></feMerge></filter></defs><g><g><rect x="156" y="-36" width="192" height="96" rx="3" ry="3" fill="#FFFFFF"></rect><rect y="-36" rx="3" stroke="#C3CFD9" fill="none" stroke-linejoin="round" width="192" stroke-linecap="round" stroke-width="2" x="156" ry="3" height="96"></rect><text y="0" font-style="normal" font-size="18" font-weight="normal" fill="#293845" width="168" xml:space="preserve" x="168" font-family="DIN Next" height="24"><tspan x="252" y="18" text-anchor="middle" style="white-space:pre;">Deployment Pipeline</tspan></text></g></g><g><g><rect x="444" y="-36" width="192" height="96" rx="3" ry="3" fill="#FFFFFF"></rect><rect y="-36" rx="3" stroke="#C3CFD9" fill="none" stroke-linejoin="round" width="192" stroke-linecap="round" stroke-width="2" x="444" ry="3" height="96"></rect><text y="0" font-style="normal" font-size="18" font-weight="normal" fill="#293845" width="168" xml:space="preserve" x="456" font-family="DIN Next" height="24"><tspan x="540" y="18" text-anchor="middle" style="white-space:pre;">Environment</tspan></text></g></g><g><g><path d="M68,138h25c8.28426,0 15,-6.71574 15,-15v-34M108,61v-34c0,-8.28426 6.71574,-15 15,-15h21" fill="none" stroke="#1AAE9F" stroke-linecap="round" stroke-linejoin="round" stroke-width="4"></path><polygon points="140.9079,6.45905 148,12 140.9079,17.54095" fill="#1AAE9F" stroke="#1AAE9F" stroke-width="2" stroke-linecap="round" stroke-linejoin="round"></polygon><text y="63.000000000000014" font-style="normal" font-size="18" font-weight="normal" fill="#293845" width="62" xml:space="preserve" x="77" font-family="DIN Next" height="24"><tspan x="108" y="81.00000000000001" text-anchor="middle" style="white-space:pre;">triggers</tspan></text></g></g><g><g><path d="M356,12h25c8.28426,0 21.71574,0 30,0h21" fill="none" stroke="#1AAE9F" stroke-linecap="round" stroke-linejoin="round" stroke-width="4"></path><polygon points="428.9079,6.45905 436,12 428.9079,17.54095" fill="#1AAE9F" stroke="#1AAE9F" stroke-width="2" stroke-linecap="round" stroke-linejoin="round"></polygon><text y="-22" font-style="normal" font-size="18" font-weight="normal" fill="#293845" width="61" xml:space="preserve" x="365.50000000000006" font-family="DIN Next" height="24"><tspan x="396.00000000000006" y="-4" text-anchor="middle" style="white-space:pre;">deploys</tspan></text></g></g><g><g><path d="M-564,-36c0,13.25482 -42.98074,24 -96,24c-53.01926,0 -96,-10.74518 -96,-24c0,-13.25482 42.98074,-24 96,-24c53.01926,0 96,10.74518 96,24c0,13.25482 0,70.74518 0,84c0,13.25482 -42.98074,24 -96,24c-53.01926,0 -96,-10.74518 -96,-24c0,-13.25482 0,-84 0,-84" fill="#FFFFFF"></path><path d="M-564,-36c0,13.25482 -42.98074,24 -96,24c-53.01926,0 -96,-10.74518 -96,-24c0,-13.25482 42.98074,-24 96,-24c53.01926,0 96,10.74518 96,24c0,13.25482 0,70.74518 0,84c0,13.25482 -42.98074,24 -96,24c-53.01926,0 -96,-10.74518 -96,-24c0,-13.25482 0,-84 0,-84" fill="none" stroke="#C3CFD9" stroke-linecap="round" stroke-linejoin="round" stroke-width="2"></path><text y="0" font-style="normal" font-size="18" font-weight="normal" fill="#293845" width="168" xml:space="preserve" x="-744" font-family="DIN Next" height="48"><tspan x="-660" y="18" text-anchor="middle" style="white-space:pre;">Application </tspan><tspan x="-660" y="42" text-anchor="middle" style="white-space:pre;">Repository</tspan></text></g></g><g><g><rect x="-480" y="-42" width="192" height="96" rx="3" ry="3" fill="#FFFFFF"></rect><rect y="-42" rx="3" stroke="#C3CFD9" fill="none" stroke-linejoin="round" width="192" stroke-linecap="round" stroke-width="2" x="-480" ry="3" height="96"></rect><text y="-6" font-style="normal" font-size="18" font-weight="normal" fill="#293845" width="168" xml:space="preserve" x="-468" font-family="DIN Next" height="24"><tspan x="-384" y="12" text-anchor="middle" style="white-space:pre;">Build Pipeline</tspan></text></g></g><g><g><path d="M60,-156c0,13.25482 -42.98074,24 -96,24c-53.01926,0 -96,-10.74518 -96,-24c0,-13.25482 42.98074,-24 96,-24c53.01926,0 96,10.74518 96,24c0,13.25482 0,58.74518 0,72c0,13.25482 -42.98074,24 -96,24c-53.01926,0 -96,-10.74518 -96,-24c0,-13.25482 0,-72 0,-72" fill="#FFFFFF"></path><path d="M60,-156c0,13.25482 -42.98074,24 -96,24c-53.01926,0 -96,-10.74518 -96,-24c0,-13.25482 42.98074,-24 96,-24c53.01926,0 96,10.74518 96,24c0,13.25482 0,58.74518 0,72c0,13.25482 -42.98074,24 -96,24c-53.01926,0 -96,-10.74518 -96,-24c0,-13.25482 0,-72 0,-72" fill="none" stroke="#C3CFD9" stroke-linecap="round" stroke-linejoin="round" stroke-width="2"></path><text y="-114" font-style="normal" font-size="18" font-weight="normal" fill="#293845" width="168" xml:space="preserve" x="-120" font-family="DIN Next" height="24"><tspan x="-36" y="-96" text-anchor="middle" style="white-space:pre;">Image Registry</tspan></text></g></g><g><g><path d="M60,96c0,13.25482 -42.98074,24 -96,24c-53.01926,0 -96,-10.74518 -96,-24c0,-13.25482 42.98074,-24 96,-24c53.01926,0 96,10.74518 96,24c0,13.25482 0,70.74518 0,84c0,13.25482 -42.98074,24 -96,24c-53.01926,0 -96,-10.74518 -96,-24c0,-13.25482 0,-84 0,-84" fill="#FFFFFF"></path><path d="M60,96c0,13.25482 -42.98074,24 -96,24c-53.01926,0 -96,-10.74518 -96,-24c0,-13.25482 42.98074,-24 96,-24c53.01926,0 96,10.74518 96,24c0,13.25482 0,70.74518 0,84c0,13.25482 -42.98074,24 -96,24c-53.01926,0 -96,-10.74518 -96,-24c0,-13.25482 0,-84 0,-84" fill="none" stroke="#C3CFD9" stroke-linecap="round" stroke-linejoin="round" stroke-width="2"></path><text y="132" font-style="normal" font-size="18" font-weight="normal" fill="#293845" width="168" xml:space="preserve" x="-120" font-family="DIN Next" height="48"><tspan x="-36" y="150" text-anchor="middle" style="white-space:pre;">Environment </tspan><tspan x="-36" y="174" text-anchor="middle" style="white-space:pre;">Repository</tspan></text></g></g><g><g><path d="M-556,6h19c8.28426,0 21.71574,0 30,0h15" fill="none" stroke="#788896" stroke-linecap="round" stroke-linejoin="round" stroke-width="4"></path><polygon points="-495.0921,0.45905 -488,6 -495.0921,11.54095" fill="#788896" stroke="#788896" stroke-width="2" stroke-linecap="round" stroke-linejoin="round"></polygon><text y="-28" font-style="normal" font-size="18" font-weight="normal" fill="#293845" width="62" xml:space="preserve" x="-553" font-family="DIN Next" height="24"><tspan x="-522" y="-10" text-anchor="middle" style="white-space:pre;">triggers</tspan></text></g></g><g><g><path d="M-280,6h55c8.28426,0 15,-6.71574 15,-15v-22M-210,-83v-22c0,-8.28426 6.71574,-15 15,-15h51" fill="none" stroke="#788896" stroke-linecap="round" stroke-linejoin="round" stroke-width="4"></path><polygon points="-147.0921,-125.54095 -140,-120 -147.0921,-114.45905" fill="#788896" stroke="#788896" stroke-width="2" stroke-linecap="round" stroke-linejoin="round"></polygon><text y="-80.99999999999996" font-style="normal" font-size="18" font-weight="normal" fill="#293845" width="135" xml:space="preserve" x="-277.5" font-family="DIN Next" height="48"><tspan x="-210" y="-62.99999999999996" text-anchor="middle" style="white-space:pre;">pushes </tspan><tspan x="-210" y="-38.99999999999996" text-anchor="middle" style="white-space:pre;">container images</tspan></text></g></g><g><g><path d="M-280,6h55c8.28426,0 15,6.71574 15,15v37M-210,86v37c0,8.28426 6.71574,15 15,15h51" fill="none" stroke="#788896" stroke-linecap="round" stroke-linejoin="round" stroke-width="4"></path><polygon points="-147.0921,132.45905 -140,138 -147.0921,143.54095" fill="#788896" stroke="#788896" stroke-width="2" stroke-linecap="round" stroke-linejoin="round"></polygon><text y="59.99999999999993" font-style="normal" font-size="18" font-weight="normal" fill="#293845" width="63" xml:space="preserve" x="-241.5" font-family="DIN Next" height="24"><tspan x="-210" y="77.99999999999993" text-anchor="middle" style="white-space:pre;">updates</tspan></text></g></g></svg>